<?xml version="1.0" standalone="no"?><!DOCTYPE svg PUBLIC "-//W3C//DTD SVG 1.1//EN" "http://www.w3.org/Graphics/SVG/1.1/DTD/svg11.dtd"><svg t="1629254967525" class="icon" viewBox="0 0 1024 1024" version="1.1" xmlns="http://www.w3.org/2000/svg" p-id="1111" xmlns:xlink="http://www.w3.org/1999/xlink" width="32" height="32"><defs><style type="text/css"></style></defs><path d="M491.15710532 763.53637865c-187.29611566 0-339.67325111-144.88314014-339.6732524-322.96900695s152.37713546-322.96900693 339.6732524-322.96900565 339.67325111 144.88314014 339.67325112 322.96900565-152.3794734 322.96900693-339.67325112 322.96900695z m0-627.23225044c-176.98222631 0-320.96749025 136.49360525-320.96749025 304.26324349s143.98526262 304.26324479 320.96749025 304.26324478 320.96749025-136.49360525 320.96748896-304.26324478c-0.00233794-167.77197746-143.98526262-304.26324479-320.96748896-304.26324349z" p-id="1112"></path><path d="M491.15710532 775.22747935c-193.74258874 0-351.3643531-150.12776777-351.3643531-334.66010765s157.62176308-334.66010764 351.3643531-334.66010635 351.3643531 150.12776777 351.36435181 334.66010635c-0.00233794 184.53233988-157.62176308 334.66010764-351.36435181 334.66010765z m0-627.23225044c-170.53575325 0-309.27638825 131.24663968-309.27638954 292.57214279s138.740635 292.57214278 309.27638954 292.57214408c170.53575325 0 309.27638825-131.24663968 309.27638825-292.57214408s-138.74297294-292.57214278-309.27638825-292.57214279z" p-id="1113"></path><path d="M756.76956948 627.76762162l208.27696539 184.35697266-12.39724285 14.00593966-208.27696668-184.35463471z" p-id="1114"></path><path d="M755.5653861 607.96523408l229.28587424 202.95283888-30.995447 35.01718645-229.28587425-202.95283888z" p-id="1115"></path></svg>