<?xml version="1.0" standalone="no"?><!DOCTYPE svg PUBLIC "-//W3C//DTD SVG 1.1//EN" "http://www.w3.org/Graphics/SVG/1.1/DTD/svg11.dtd"><svg t="1629254301535" class="icon" viewBox="0 0 1024 1024" version="1.1" xmlns="http://www.w3.org/2000/svg" p-id="831" xmlns:xlink="http://www.w3.org/1999/xlink" width="32" height="32"><defs><style type="text/css"></style></defs><path d="M864.10445369 802.99470279c-102.19894784 88.52652487-565.95981085 39.48007197-565.95981084 39.4800731s-153.64778439-11.74476117-153.31691748-103.08879587c0.23427869-64.55405909 87.97165454-69.47391147 99.4924123-123.95604196 8.21825081-38.86149405 8.48130048-146.03372658 40.77477092-238.12786289 28.91492466-82.45993927 145.97001899-181.76328477 220.03291591-193.44433835 86.3132069-13.61488099 195.93303609 99.85821582 231.18787129 179.81301646 18.61282702 42.21126883 26.03781803 196.51256775 30.93300906 234.35679858 5.52815502 42.75586389 86.53104583 87.91411143 105.35965582 120.15826033 17.45170887 29.88492003 21.17550649 59.09988579-8.50390698 84.8088906zM595.18127104 915.53479566c0 39.63420331-32.13111865 71.76532195-71.76532195 71.76532196s-71.76326713-32.13111865-71.76326714-71.76532196 32.12906382-30.98849621 71.76326714-30.98849735 71.76532195-8.64570595 71.76532195 30.98849735zM579.68599495 127.64523293c0 28.31484245-25.19318073 24.60953941-56.27004586 24.60953941s-56.27004587 3.70530304-56.27004587-24.60953941c0-28.31278763 25.19318073-51.26593536 56.27004587-51.26593536s56.27004587 22.95109291 56.27004586 51.26593536zM299.34480725 254.6859429c-29.00740323 33.92725561-44.67119445 66.87629539-49.72051683 62.56268971-5.04726755-4.31566051 2.44143104-44.26018019 31.44472348-78.18743467 29.00534727-33.92725561 67.11262891-46.43856043 72.15784164-42.12290105 5.04932238 4.31360569-24.87669987 23.81833557-53.88204829 57.74764601zM724.81343261 255.75869326c-22.64899698-38.46280875-48.71353003-63.99302315-42.99219741-67.36540331 5.72133262-3.36827051 41.05837113 16.70366094 63.70942293 55.16441487 22.64899698 38.46280875 22.08796103 78.56762425 16.36662841 81.93589475-5.72133262 3.37032533-14.43280099-31.27209757-37.08385393-69.73490631z" p-id="832"></path></svg>