<?xml version="1.0" standalone="no"?><!DOCTYPE svg PUBLIC "-//W3C//DTD SVG 1.1//EN" "http://www.w3.org/Graphics/SVG/1.1/DTD/svg11.dtd"><svg t="1630034629094" class="icon" viewBox="0 0 1026 1024" version="1.1" xmlns="http://www.w3.org/2000/svg" p-id="1220" xmlns:xlink="http://www.w3.org/1999/xlink" width="32.0625" height="32"><defs><style type="text/css"></style></defs><path d="M948.147543 272.112137a39.365485 39.365485 0 0 0-38.868087-35.173132h-197.964333V197.040594a197.822219 197.822219 0 0 0-395.644438 0v39.862883H117.990579a39.401013 39.401013 0 0 0-38.868086 35.173131L0.284938 980.584276a39.756297 39.756297 0 0 0 9.41503 30.483381 38.335161 38.335161 0 0 0 29.417528 12.896815h947.898134a38.335161 38.335161 0 0 0 29.417528-12.896815 41.212962 41.212962 0 0 0 9.41503-30.483381z m-553.426133-73.899105a118.949136 118.949136 0 0 1 237.862744 0V238.040386h-236.654778V198.213032zM83.8833 946.583582L154.549319 316.700298h162.400389v117.243773a39.614184 39.614184 0 0 0 40.040524 39.862882 40.395809 40.395809 0 0 0 40.040525-39.862882V315.527861h235.48234v118.451738a39.365485 39.365485 0 0 0 38.868087 39.862882 40.395809 40.395809 0 0 0 40.040524-39.862882V315.527861h162.506974l70.666019 629.883283H83.8833z" p-id="1221"></path></svg>